<svg viewBox="0 0 1 1" xmlns="http://www.w3.org/2000/svg">
<line x1="0.88760537" y1="0.35674664" x2="0.7257277" y2="0.16236177" style="stroke:black;stroke-width:0.002" /><line x1="0.7257277" y1="0.16236177" x2="0.477668" y2="0.1" style="stroke:black;stroke-width:0.002" /><line x1="0.477668" y1="0.1" x2="0.23891959" y2="0.18991259" style="stroke:black;stroke-width:0.002" /><line x1="0.23891959" y1="0.18991259" x2="0.1" y2="0.39768705" style="stroke:black;stroke-width:0.002" /><line x1="0.1" y1="0.39768705" x2="0.11376133" y2="0.644503" style="stroke:black;stroke-width:0.002" /><line x1="0.11376133" y1="0.644503" x2="0.27521774" y2="0.83644044" style="stroke:black;stroke-width:0.002" /><line x1="0.27521774" y1="0.83644044" x2="0.5227996" y2="0.9" style="stroke:black;stroke-width:0.002" /><line x1="0.5227996" y1="0.9" x2="0.76168567" y2="0.8104922" style="stroke:black;stroke-width:0.002" /><line x1="0.76168567" y1="0.8104922" x2="0.90000004" y2="0.6021242" style="stroke:black;stroke-width:0.002" /><line x1="0.90000004" y1="0.6021242" x2="0.88760537" y2="0.35674664" style="stroke:black;stroke-width:0.002" /><rect x="0.25355107" y="0.8114404" width="0.043333333" height="0.060000002" style="fill:white;stroke-width:0.001;stroke:black"></rect><text x="0.27521774" y="0.8564404" text-anchor="middle" font-size="0.05" fill="black">6</text>
<rect x="0.4560013" y="0.075" width="0.043333333" height="0.060000002" style="fill:white;stroke-width:0.001;stroke:black"></rect><text x="0.477668" y="0.120000005" text-anchor="middle" font-size="0.05" fill="black">2</text>
<rect x="0.8783334" y="0.5771242" width="0.043333333" height="0.060000002" style="fill:white;stroke-width:0.001;stroke:black"></rect><text x="0.90000004" y="0.6221242" text-anchor="middle" font-size="0.05" fill="black">9</text>
<rect x="0.70489436" y="0.13736176" width="0.041666664" height="0.060000002" style="fill:white;stroke-width:0.001;stroke:black"></rect><text x="0.7257277" y="0.18236177" text-anchor="middle" font-size="0.05" fill="black">1</text>
<rect x="0.21725293" y="0.16491258" width="0.043333333" height="0.060000002" style="fill:white;stroke-width:0.001;stroke:black"></rect><text x="0.23891959" y="0.20991258" text-anchor="middle" font-size="0.05" fill="black">3</text>
<rect x="0.09209466" y="0.61950296" width="0.043333333" height="0.060000002" style="fill:white;stroke-width:0.001;stroke:black"></rect><text x="0.11376133" y="0.664503" text-anchor="middle" font-size="0.05" fill="black">5</text>
<rect x="0.07666667" y="0.37268704" width="0.046666667" height="0.060000002" style="fill:white;stroke-width:0.001;stroke:black"></rect><text x="0.1" y="0.41768706" text-anchor="middle" font-size="0.05" fill="black">4</text>
<rect x="0.50113297" y="0.87499994" width="0.043333333" height="0.060000002" style="fill:white;stroke-width:0.001;stroke:black"></rect><text x="0.5227996" y="0.91999996" text-anchor="middle" font-size="0.05" fill="black">7</text>
<rect x="0.8659387" y="0.33174664" width="0.043333333" height="0.060000002" style="fill:white;stroke-width:0.001;stroke:black"></rect><text x="0.88760537" y="0.37674665" text-anchor="middle" font-size="0.05" fill="black">0</text>
<rect x="0.740019" y="0.78549224" width="0.043333333" height="0.060000002" style="fill:white;stroke-width:0.001;stroke:black"></rect><text x="0.76168567" y="0.83049226" text-anchor="middle" font-size="0.05" fill="black">8</text>
<path d="M0,0 l0,1 l1,0 l0,-1 z" fill="none" stroke="black" stroke-width="0.01"/></svg>
