<svg viewBox="0 0 1 1" xmlns="http://www.w3.org/2000/svg">
<path d="M0,0 l0,1 l1,0 l0,-1 z" fill="white" stroke="black" stroke-width="0.01"/><line x1="0.56373906" y1="0.6448969" x2="0.5270533" y2="0.8278144" style="stroke:black;stroke-width:0.002" /><line x1="0.56373906" y1="0.6448969" x2="0.6924879" y2="0.8075043" style="stroke:black;stroke-width:0.002" /><line x1="0.56373906" y1="0.6448969" x2="0.67178947" y2="0.5176186" style="stroke:black;stroke-width:0.002" /><line x1="0.56373906" y1="0.6448969" x2="0.7777143" y2="0.6743648" style="stroke:black;stroke-width:0.002" /><line x1="0.7078721" y1="0.2896802" x2="0.5967238" y2="0.12149562" style="stroke:black;stroke-width:0.002" /><line x1="0.7078721" y1="0.2896802" x2="0.77083975" y2="0.1" style="stroke:black;stroke-width:0.002" /><line x1="0.7078721" y1="0.2896802" x2="0.90000004" y2="0.35724825" style="stroke:black;stroke-width:0.002" /><line x1="0.7078721" y1="0.2896802" x2="0.50774425" y2="0.26637125" style="stroke:black;stroke-width:0.002" /><line x1="0.7078721" y1="0.2896802" x2="0.89582556" y2="0.19029228" style="stroke:black;stroke-width:0.002" /><line x1="0.31409848" y1="0.7078759" x2="0.30170366" y2="0.90000004" style="stroke:black;stroke-width:0.002" /><line x1="0.31409848" y1="0.7078759" x2="0.22507593" y2="0.5428932" style="stroke:black;stroke-width:0.002" /><line x1="0.31409848" y1="0.7078759" x2="0.13775204" y2="0.8205938" style="stroke:black;stroke-width:0.002" /><line x1="0.31409848" y1="0.7078759" x2="0.1" y2="0.6776636" style="stroke:black;stroke-width:0.002" /><line x1="0.13775204" y1="0.8205938" x2="0.1" y2="0.6776636" style="stroke:black;stroke-width:0.002" /><line x1="0.89582556" y1="0.19029228" x2="0.77083975" y2="0.1" style="stroke:black;stroke-width:0.002" /><line x1="0.56373906" y1="0.6448969" x2="0.31409848" y2="0.7078759" style="stroke:black;stroke-width:0.002" /><rect x="0.6716546" y="0.78250426" width="0.041666664" height="0.060000002" style="fill:white;stroke-width:0.001;stroke:black"></rect><text x="0.6924879" y="0.8275043" text-anchor="middle" font-size="0.05" fill="black">c</text>
<rect x="0.11608537" y="0.7955938" width="0.043333333" height="0.060000002" style="fill:white;stroke-width:0.001;stroke:black"></rect><text x="0.13775204" y="0.8405938" text-anchor="middle" font-size="0.05" fill="black">o</text>
<rect x="0.69120544" y="0.2646802" width="0.03333333" height="0.060000002" style="fill:white;stroke-width:0.001;stroke:black"></rect><text x="0.7078721" y="0.30968022" text-anchor="middle" font-size="0.05" fill="black">f</text>
<rect x="0.50538665" y="0.8028144" width="0.043333333" height="0.060000002" style="fill:white;stroke-width:0.001;stroke:black"></rect><text x="0.5270533" y="0.84781444" text-anchor="middle" font-size="0.05" fill="black">b</text>
<rect x="0.8741589" y="0.16529228" width="0.043333333" height="0.060000002" style="fill:white;stroke-width:0.001;stroke:black"></rect><text x="0.89582556" y="0.21029228" text-anchor="middle" font-size="0.05" fill="black">k</text>
<rect x="0.27420366" y="0.87500006" width="0.055" height="0.060000002" style="fill:white;stroke-width:0.001;stroke:black"></rect><text x="0.30170366" y="0.9200001" text-anchor="middle" font-size="0.05" fill="black">m</text>
<rect x="0.49274427" y="0.24137126" width="0.03" height="0.060000002" style="fill:white;stroke-width:0.001;stroke:black"></rect><text x="0.50774425" y="0.28637126" text-anchor="middle" font-size="0.05" fill="blue">j</text>
<rect x="0.20340927" y="0.51789314" width="0.043333333" height="0.060000002" style="fill:white;stroke-width:0.001;stroke:black"></rect><text x="0.22507593" y="0.56289315" text-anchor="middle" font-size="0.05" fill="black">n</text>
<rect x="0.7491731" y="0.075" width="0.043333333" height="0.060000002" style="fill:white;stroke-width:0.001;stroke:black"></rect><text x="0.77083975" y="0.120000005" text-anchor="middle" font-size="0.05" fill="black">h</text>
<rect x="0.5584561" y="0.4326186" width="0.22666666" height="0.18" style="fill:white;stroke-width:0.001;stroke:black"></rect><text x="0.67178947" y="0.4776186" text-anchor="middle" font-size="0.05" fill="magenta">some text</text><text x="0.67178947" y="0.53761864" text-anchor="middle" font-size="0.05" fill="magenta">here</text><text x="0.67178947" y="0.5976186" text-anchor="middle" font-size="0.05" fill="magenta">:^)</text>
<rect x="0.57505715" y="0.09649561" width="0.043333333" height="0.060000002" style="fill:white;stroke-width:0.001;stroke:black"></rect><text x="0.5967238" y="0.14149562" text-anchor="middle" font-size="0.05" fill="black">g</text>
<rect x="0.75604767" y="0.64936477" width="0.043333333" height="0.060000002" style="fill:white;stroke-width:0.001;stroke:black"></rect><text x="0.7777143" y="0.6943648" text-anchor="middle" font-size="0.05" fill="black">e</text>
<rect x="0.8866667" y="0.33224824" width="0.026666667" height="0.060000002" style="fill:white;stroke-width:0.001;stroke:black"></rect><text x="0.90000004" y="0.37724826" text-anchor="middle" font-size="0.05" fill="red">i</text>
<rect x="0.30076516" y="0.68287593" width="0.026666667" height="0.060000002" style="fill:white;stroke-width:0.001;stroke:black"></rect><text x="0.31409848" y="0.72787595" text-anchor="middle" font-size="0.05" fill="black">l</text>
<rect x="0.5412391" y="0.61989695" width="0.045" height="0.060000002" style="fill:white;stroke-width:0.001;stroke:black"></rect><text x="0.56373906" y="0.66489697" text-anchor="middle" font-size="0.05" fill="black">a</text>
</svg>
