<svg viewBox="0 0 1 1" xmlns="http://www.w3.org/2000/svg">
<path d="M0,0 l0,1 l1,0 l0,-1 z" fill="white" stroke="black" stroke-width="0.01"/><line x1="0.578879" y1="0.36679798" x2="0.53914875" y2="0.1" style="stroke:black;stroke-width:0.002" /><line x1="0.53914875" y1="0.1" x2="0.9" y2="0.19306698" style="stroke:black;stroke-width:0.002" /><line x1="0.9" y1="0.19306698" x2="0.578879" y2="0.36679798" style="stroke:black;stroke-width:0.002" /><line x1="0.41412976" y1="0.63328445" x2="0.1" y2="0.8102312" style="stroke:black;stroke-width:0.002" /><line x1="0.1" y1="0.8102312" x2="0.46339574" y2="0.90000004" style="stroke:black;stroke-width:0.002" /><line x1="0.46339574" y1="0.90000004" x2="0.41412976" y2="0.63328445" style="stroke:black;stroke-width:0.002" /><rect x="0.5174821" y="0.075" width="0.043333333" height="0.060000002" style="fill:white;stroke-width:0.001;stroke:black"></rect><text x="0.53914875" y="0.120000005" text-anchor="middle" font-size="0.05" fill="black">b</text>
<rect x="0.3924631" y="0.6082844" width="0.043333333" height="0.060000002" style="fill:white;stroke-width:0.001;stroke:black"></rect><text x="0.41412976" y="0.65328443" text-anchor="middle" font-size="0.05" fill="black">d</text>
<rect x="0.87916666" y="0.16806698" width="0.041666664" height="0.060000002" style="fill:white;stroke-width:0.001;stroke:black"></rect><text x="0.9" y="0.21306698" text-anchor="middle" font-size="0.05" fill="black">c</text>
<rect x="0.44672906" y="0.87500006" width="0.03333333" height="0.060000002" style="fill:white;stroke-width:0.001;stroke:black"></rect><text x="0.46339574" y="0.9200001" text-anchor="middle" font-size="0.05" fill="black">f</text>
<rect x="0.07833333" y="0.7852312" width="0.043333333" height="0.060000002" style="fill:white;stroke-width:0.001;stroke:black"></rect><text x="0.1" y="0.8302312" text-anchor="middle" font-size="0.05" fill="black">e</text>
<rect x="0.556379" y="0.34179798" width="0.045" height="0.060000002" style="fill:white;stroke-width:0.001;stroke:black"></rect><text x="0.578879" y="0.386798" text-anchor="middle" font-size="0.05" fill="black">a</text>
</svg>
