<svg viewBox="0 0 1 1" xmlns="http://www.w3.org/2000/svg">
<line x1="0.59539574" y1="0.4842241" x2="0.7604481" y2="0.1876648" style="stroke:black;stroke-width:0.002" /><line x1="0.59539574" y1="0.4842241" x2="0.87685853" y2="0.80082124" style="stroke:black;stroke-width:0.002" /><line x1="0.59539574" y1="0.4842241" x2="0.72055703" y2="0.90000004" style="stroke:black;stroke-width:0.002" /><line x1="0.59539574" y1="0.4842241" x2="0.3488887" y2="0.1" style="stroke:black;stroke-width:0.002" /><line x1="0.59539574" y1="0.4842241" x2="0.31312475" y2="0.67914736" style="stroke:black;stroke-width:0.002" /><line x1="0.59539574" y1="0.4842241" x2="0.90000004" y2="0.3807599" style="stroke:black;stroke-width:0.002" /><line x1="0.7604481" y1="0.1876648" x2="0.87685853" y2="0.80082124" style="stroke:black;stroke-width:0.002" /><line x1="0.7604481" y1="0.1876648" x2="0.72055703" y2="0.90000004" style="stroke:black;stroke-width:0.002" /><line x1="0.3488887" y1="0.1" x2="0.31312475" y2="0.67914736" style="stroke:black;stroke-width:0.002" /><line x1="0.1" y1="0.29767394" x2="0.3488887" y2="0.1" style="stroke:black;stroke-width:0.002" /><line x1="0.1" y1="0.29767394" x2="0.31312475" y2="0.67914736" style="stroke:black;stroke-width:0.002" /><rect x="0.8783334" y="0.3557599" width="0.043333333" height="0.060000002" style="fill:white;stroke-width:0.001;stroke:black"></rect><text x="0.90000004" y="0.4007599" text-anchor="middle" font-size="0.05" fill="black">g</text>
<rect x="-0.019999996" y="0.27267393" width="0.24" height="0.060000002" style="fill:white;stroke-width:0.001;stroke:black"></rect><text x="0.1" y="0.31767395" text-anchor="middle" font-size="0.05" fill="black">long name</text>
<rect x="0.29645807" y="0.6541473" width="0.03333333" height="0.060000002" style="fill:white;stroke-width:0.001;stroke:black"></rect><text x="0.31312475" y="0.69914734" text-anchor="middle" font-size="0.05" fill="black">f</text>
<rect x="0.57289577" y="0.45922405" width="0.045" height="0.060000002" style="fill:white;stroke-width:0.001;stroke:black"></rect><text x="0.59539574" y="0.50422406" text-anchor="middle" font-size="0.05" fill="black">a</text>
<rect x="0.6988904" y="0.87500006" width="0.043333333" height="0.060000002" style="fill:white;stroke-width:0.001;stroke:black"></rect><text x="0.72055703" y="0.9200001" text-anchor="middle" font-size="0.05" fill="black">d</text>
<rect x="0.32722202" y="0.075" width="0.043333333" height="0.060000002" style="fill:white;stroke-width:0.001;stroke:black"></rect><text x="0.3488887" y="0.120000005" text-anchor="middle" font-size="0.05" fill="black">e</text>
<rect x="0.8560252" y="0.77582127" width="0.041666664" height="0.060000002" style="fill:white;stroke-width:0.001;stroke:black"></rect><text x="0.87685853" y="0.8208213" text-anchor="middle" font-size="0.05" fill="black">c</text>
<rect x="0.73878145" y="0.1626648" width="0.043333333" height="0.060000002" style="fill:white;stroke-width:0.001;stroke:black"></rect><text x="0.7604481" y="0.2076648" text-anchor="middle" font-size="0.05" fill="black">b</text>
<path d="M0,0 l0,1 l1,0 l0,-1 z" fill="none" stroke="black" stroke-width="0.01"/></svg>
