<svg viewBox="0 0 1 1" xmlns="http://www.w3.org/2000/svg">
<path d="M0,0 l0,1 l1,0 l0,-1 z" fill="white" stroke="black" stroke-width="0.01"/><line x1="0.3861071" y1="0.5118796" x2="0.1" y2="0.49121827" style="stroke:black;stroke-width:0.002" /><line x1="0.3861071" y1="0.5118796" x2="0.20056528" y2="0.90000004" style="stroke:black;stroke-width:0.002" /><line x1="0.3861071" y1="0.5118796" x2="0.22080413" y2="0.1" style="stroke:black;stroke-width:0.002" /><line x1="0.3861071" y1="0.5118796" x2="0.6600552" y2="0.32225743" style="stroke:black;stroke-width:0.002" /><line x1="0.3861071" y1="0.5118796" x2="0.64964426" y2="0.74444" style="stroke:black;stroke-width:0.002" /><line x1="0.1" y1="0.49121827" x2="0.20056528" y2="0.90000004" style="stroke:black;stroke-width:0.002" /><line x1="0.1" y1="0.49121827" x2="0.22080413" y2="0.1" style="stroke:black;stroke-width:0.002" /><line x1="0.6600552" y1="0.32225743" x2="0.64964426" y2="0.74444" style="stroke:black;stroke-width:0.002" /><line x1="0.90000004" y1="0.55007577" x2="0.6600552" y2="0.32225743" style="stroke:black;stroke-width:0.002" /><line x1="0.90000004" y1="0.55007577" x2="0.64964426" y2="0.74444" style="stroke:black;stroke-width:0.002" /><rect x="0.6329776" y="0.71944004" width="0.03333333" height="0.060000002" style="fill:white;stroke-width:0.001;stroke:black"></rect><text x="0.64964426" y="0.76444006" text-anchor="middle" font-size="0.05" fill="black">f</text>
<rect x="0.17973195" y="0.87500006" width="0.041666664" height="0.060000002" style="fill:white;stroke-width:0.001;stroke:black"></rect><text x="0.20056528" y="0.9200001" text-anchor="middle" font-size="0.05" fill="black">c</text>
<rect x="0.8783334" y="0.52507573" width="0.043333333" height="0.060000002" style="fill:white;stroke-width:0.001;stroke:black"></rect><text x="0.90000004" y="0.57007575" text-anchor="middle" font-size="0.05" fill="black">e</text>
<rect x="0.36360708" y="0.48687965" width="0.045" height="0.060000002" style="fill:white;stroke-width:0.001;stroke:black"></rect><text x="0.3861071" y="0.53187966" text-anchor="middle" font-size="0.05" fill="black">a</text>
<rect x="0.19913746" y="0.075" width="0.043333333" height="0.060000002" style="fill:white;stroke-width:0.001;stroke:black"></rect><text x="0.22080413" y="0.120000005" text-anchor="middle" font-size="0.05" fill="black">d</text>
<rect x="0.07833333" y="0.4662183" width="0.043333333" height="0.060000002" style="fill:white;stroke-width:0.001;stroke:black"></rect><text x="0.1" y="0.5112183" text-anchor="middle" font-size="0.05" fill="black">b</text>
<rect x="0.5400552" y="0.29725742" width="0.24" height="0.060000002" style="fill:white;stroke-width:0.001;stroke:black"></rect><text x="0.6600552" y="0.34225744" text-anchor="middle" font-size="0.05" fill="black">long name</text>
</svg>
