<svg viewBox="0 0 1 1" xmlns="http://www.w3.org/2000/svg">
<line x1="0.1" y1="0.46967307" x2="0.19269615" y2="0.23525819" style="stroke:black;stroke-width:0.002" /><line x1="0.19269615" y1="0.23525819" x2="0.40154362" y2="0.1" style="stroke:black;stroke-width:0.002" /><line x1="0.40154362" y1="0.1" x2="0.64834034" y2="0.11692339" style="stroke:black;stroke-width:0.002" /><line x1="0.64834034" y1="0.11692339" x2="0.8391886" y2="0.2797727" style="stroke:black;stroke-width:0.002" /><line x1="0.8391886" y1="0.2797727" x2="0.9" y2="0.5283896" style="stroke:black;stroke-width:0.002" /><line x1="0.9" y1="0.5283896" x2="0.8065146" y2="0.7657603" style="stroke:black;stroke-width:0.002" /><line x1="0.8065146" y1="0.7657603" x2="0.59461445" y2="0.90000004" style="stroke:black;stroke-width:0.002" /><line x1="0.59461445" y1="0.90000004" x2="0.34681782" y2="0.8806689" style="stroke:black;stroke-width:0.002" /><line x1="0.34681782" y1="0.8806689" x2="0.15840185" y2="0.7154606" style="stroke:black;stroke-width:0.002" /><line x1="0.15840185" y1="0.7154606" x2="0.1" y2="0.46967307" style="stroke:black;stroke-width:0.002" /><line x1="0.5018804" y1="0.5100666" x2="0.1" y2="0.46967307" style="stroke:black;stroke-width:0.002" /><line x1="0.5018804" y1="0.5100666" x2="0.19269615" y2="0.23525819" style="stroke:black;stroke-width:0.002" /><line x1="0.5018804" y1="0.5100666" x2="0.40154362" y2="0.1" style="stroke:black;stroke-width:0.002" /><line x1="0.5018804" y1="0.5100666" x2="0.64834034" y2="0.11692339" style="stroke:black;stroke-width:0.002" /><line x1="0.5018804" y1="0.5100666" x2="0.8391886" y2="0.2797727" style="stroke:black;stroke-width:0.002" /><line x1="0.5018804" y1="0.5100666" x2="0.9" y2="0.5283896" style="stroke:black;stroke-width:0.002" /><line x1="0.5018804" y1="0.5100666" x2="0.8065146" y2="0.7657603" style="stroke:black;stroke-width:0.002" /><line x1="0.5018804" y1="0.5100666" x2="0.59461445" y2="0.90000004" style="stroke:black;stroke-width:0.002" /><line x1="0.5018804" y1="0.5100666" x2="0.34681782" y2="0.8806689" style="stroke:black;stroke-width:0.002" /><line x1="0.5018804" y1="0.5100666" x2="0.15840185" y2="0.7154606" style="stroke:black;stroke-width:0.002" /><rect x="0.81585526" y="0.2547727" width="0.046666667" height="0.060000002" style="fill:white;stroke-width:0.001;stroke:black"></rect><text x="0.8391886" y="0.2997727" text-anchor="middle" font-size="0.05" fill="black">4</text>
<rect x="0.37987694" y="0.075" width="0.043333333" height="0.060000002" style="fill:white;stroke-width:0.001;stroke:black"></rect><text x="0.40154362" y="0.120000005" text-anchor="middle" font-size="0.05" fill="black">2</text>
<rect x="0.4793804" y="0.4850666" width="0.045" height="0.060000002" style="fill:white;stroke-width:0.001;stroke:black"></rect><text x="0.5018804" y="0.5300666" text-anchor="middle" font-size="0.05" fill="black">a</text>
<rect x="0.6266737" y="0.091923386" width="0.043333333" height="0.060000002" style="fill:white;stroke-width:0.001;stroke:black"></rect><text x="0.64834034" y="0.13692339" text-anchor="middle" font-size="0.05" fill="black">3</text>
<rect x="0.5729478" y="0.87500006" width="0.043333333" height="0.060000002" style="fill:white;stroke-width:0.001;stroke:black"></rect><text x="0.59461445" y="0.9200001" text-anchor="middle" font-size="0.05" fill="black">7</text>
<rect x="0.87833333" y="0.50338954" width="0.043333333" height="0.060000002" style="fill:white;stroke-width:0.001;stroke:black"></rect><text x="0.9" y="0.54838955" text-anchor="middle" font-size="0.05" fill="black">5</text>
<rect x="0.784848" y="0.74076027" width="0.043333333" height="0.060000002" style="fill:white;stroke-width:0.001;stroke:black"></rect><text x="0.8065146" y="0.7857603" text-anchor="middle" font-size="0.05" fill="black">6</text>
<rect x="0.07833333" y="0.44467303" width="0.043333333" height="0.060000002" style="fill:white;stroke-width:0.001;stroke:black"></rect><text x="0.1" y="0.48967305" text-anchor="middle" font-size="0.05" fill="black">0</text>
<rect x="0.32515115" y="0.85566884" width="0.043333333" height="0.060000002" style="fill:white;stroke-width:0.001;stroke:black"></rect><text x="0.34681782" y="0.90066886" text-anchor="middle" font-size="0.05" fill="black">8</text>
<rect x="0.13673519" y="0.6904606" width="0.043333333" height="0.060000002" style="fill:white;stroke-width:0.001;stroke:black"></rect><text x="0.15840185" y="0.73546064" text-anchor="middle" font-size="0.05" fill="black">9</text>
<rect x="0.17186283" y="0.2102582" width="0.041666664" height="0.060000002" style="fill:white;stroke-width:0.001;stroke:black"></rect><text x="0.19269615" y="0.2552582" text-anchor="middle" font-size="0.05" fill="black">1</text>
<path d="M0,0 l0,1 l1,0 l0,-1 z" fill="none" stroke="black" stroke-width="0.01"/></svg>
