<svg viewBox="0 0 1 1" xmlns="http://www.w3.org/2000/svg">
<line x1="0.47148997" y1="0.65717226" x2="0.37093347" y2="0.7234082" style="stroke:black;stroke-width:0.002" /><line x1="0.7683491" y1="0.5851469" x2="0.7131088" y2="0.6836938" style="stroke:black;stroke-width:0.002" /><line x1="0.83587104" y1="0.6680223" x2="0.7131088" y2="0.6836938" style="stroke:black;stroke-width:0.002" /><line x1="0.48278624" y1="0.41088337" x2="0.47265452" y2="0.5408019" style="stroke:black;stroke-width:0.002" /><line x1="0.48278624" y1="0.41088337" x2="0.3735536" y2="0.38284212" style="stroke:black;stroke-width:0.002" /><line x1="0.7963231" y1="0.78954965" x2="0.7997303" y2="0.90000004" style="stroke:black;stroke-width:0.002" /><line x1="0.7963231" y1="0.78954965" x2="0.90000004" y2="0.8215789" style="stroke:black;stroke-width:0.002" /><line x1="0.7963231" y1="0.78954965" x2="0.90000004" y2="0.8215789" style="stroke:black;stroke-width:0.002" /><line x1="0.7963231" y1="0.78954965" x2="0.7131088" y2="0.6836938" style="stroke:black;stroke-width:0.002" /><line x1="0.59922814" y1="0.7017992" x2="0.47148997" y2="0.65717226" style="stroke:black;stroke-width:0.002" /><line x1="0.59922814" y1="0.7017992" x2="0.5284849" y2="0.74254113" style="stroke:black;stroke-width:0.002" /><line x1="0.59922814" y1="0.7017992" x2="0.7131088" y2="0.6836938" style="stroke:black;stroke-width:0.002" /><line x1="0.7131088" y1="0.6836938" x2="0.5796184" y2="0.628994" style="stroke:black;stroke-width:0.002" /><line x1="0.34779543" y1="0.48895136" x2="0.21608761" y2="0.48799673" style="stroke:black;stroke-width:0.002" /><line x1="0.5713032" y1="0.19231492" x2="0.6281631" y2="0.1" style="stroke:black;stroke-width:0.002" /><line x1="0.5713032" y1="0.19231492" x2="0.5081566" y2="0.29278105" style="stroke:black;stroke-width:0.002" /><line x1="0.5796184" y1="0.628994" x2="0.5284849" y2="0.74254113" style="stroke:black;stroke-width:0.002" /><line x1="0.5796184" y1="0.628994" x2="0.47265452" y2="0.5408019" style="stroke:black;stroke-width:0.002" /><line x1="0.5081566" y1="0.29278105" x2="0.48278624" y2="0.41088337" style="stroke:black;stroke-width:0.002" /><line x1="0.5081566" y1="0.29278105" x2="0.39541548" y2="0.27845374" style="stroke:black;stroke-width:0.002" /><line x1="0.47265452" y1="0.5408019" x2="0.47148997" y2="0.65717226" style="stroke:black;stroke-width:0.002" /><line x1="0.47265452" y1="0.5408019" x2="0.34779543" y2="0.48895136" style="stroke:black;stroke-width:0.002" /><line x1="0.39541548" y1="0.27845374" x2="0.3735536" y2="0.38284212" style="stroke:black;stroke-width:0.002" /><line x1="0.3735536" y1="0.38284212" x2="0.34779543" y2="0.48895136" style="stroke:black;stroke-width:0.002" /><line x1="0.1" y1="0.48114267" x2="0.21608761" y2="0.48799673" style="stroke:black;stroke-width:0.002" /><rect x="0.69144213" y="0.65869385" width="0.043333333" height="0.060000002" style="fill:white;stroke-width:0.001;stroke:black"></rect><text x="0.7131088" y="0.70369387" text-anchor="middle" font-size="0.05" fill="black">n</text>
<rect x="0.54963654" y="0.16731492" width="0.043333333" height="0.060000002" style="fill:white;stroke-width:0.001;stroke:black"></rect><text x="0.5713032" y="0.21231492" text-anchor="middle" font-size="0.05" fill="black">q</text>
<rect x="0.8783334" y="0.79657894" width="0.043333333" height="0.060000002" style="fill:white;stroke-width:0.001;stroke:black"></rect><text x="0.90000004" y="0.84157896" text-anchor="middle" font-size="0.05" fill="black">g</text>
<rect x="0.32612875" y="0.4639513" width="0.043333333" height="0.060000002" style="fill:white;stroke-width:0.001;stroke:black"></rect><text x="0.34779543" y="0.5089513" text-anchor="middle" font-size="0.05" fill="black">o</text>
<rect x="0.50681823" y="0.71754116" width="0.043333333" height="0.060000002" style="fill:white;stroke-width:0.001;stroke:black"></rect><text x="0.5284849" y="0.7625412" text-anchor="middle" font-size="0.05" fill="black">e</text>
<rect x="0.1935876" y="0.46299666" width="0.045" height="0.060000002" style="fill:white;stroke-width:0.001;stroke:black"></rect><text x="0.21608761" y="0.5079967" text-anchor="middle" font-size="0.05" fill="black">y</text>
<rect x="0.34343347" y="0.6984082" width="0.055" height="0.060000002" style="fill:white;stroke-width:0.001;stroke:black"></rect><text x="0.37093347" y="0.7434082" text-anchor="middle" font-size="0.05" fill="black">m</text>
<rect x="0.3510536" y="0.35784212" width="0.045" height="0.060000002" style="fill:white;stroke-width:0.001;stroke:black"></rect><text x="0.3735536" y="0.40284213" text-anchor="middle" font-size="0.05" fill="black">x</text>
<rect x="0.36708215" y="0.25345373" width="0.056666665" height="0.060000002" style="fill:white;stroke-width:0.001;stroke:black"></rect><text x="0.39541548" y="0.29845375" text-anchor="middle" font-size="0.05" fill="black">w</text>
<rect x="0.44898996" y="0.6321723" width="0.045" height="0.060000002" style="fill:white;stroke-width:0.001;stroke:black"></rect><text x="0.47148997" y="0.6771723" text-anchor="middle" font-size="0.05" fill="black">a</text>
<rect x="0.5858948" y="0.67679924" width="0.026666667" height="0.060000002" style="fill:white;stroke-width:0.001;stroke:black"></rect><text x="0.59922814" y="0.72179925" text-anchor="middle" font-size="0.05" fill="black">l</text>
<rect x="0.08" y="0.4561426" width="0.04" height="0.060000002" style="fill:white;stroke-width:0.001;stroke:black"></rect><text x="0.1" y="0.5011426" text-anchor="middle" font-size="0.05" fill="black">z</text>
<rect x="0.78306365" y="0.87500006" width="0.03333333" height="0.060000002" style="fill:white;stroke-width:0.001;stroke:black"></rect><text x="0.7997303" y="0.9200001" text-anchor="middle" font-size="0.05" fill="black">f</text>
<rect x="0.74668247" y="0.56014687" width="0.043333333" height="0.060000002" style="fill:white;stroke-width:0.001;stroke:black"></rect><text x="0.7683491" y="0.6051469" text-anchor="middle" font-size="0.05" fill="black">b</text>
<rect x="0.8150377" y="0.64302224" width="0.041666664" height="0.060000002" style="fill:white;stroke-width:0.001;stroke:black"></rect><text x="0.83587104" y="0.68802226" text-anchor="middle" font-size="0.05" fill="black">c</text>
<rect x="0.56295174" y="0.60399395" width="0.03333333" height="0.060000002" style="fill:white;stroke-width:0.001;stroke:black"></rect><text x="0.5796184" y="0.64899397" text-anchor="middle" font-size="0.05" fill="black">t</text>
<rect x="0.48648992" y="0.26778105" width="0.043333333" height="0.060000002" style="fill:white;stroke-width:0.001;stroke:black"></rect><text x="0.5081566" y="0.31278107" text-anchor="middle" font-size="0.05" fill="black">u</text>
<rect x="0.7829898" y="0.7645497" width="0.026666667" height="0.060000002" style="fill:white;stroke-width:0.001;stroke:black"></rect><text x="0.7963231" y="0.8095497" text-anchor="middle" font-size="0.05" fill="black">i</text>
<rect x="0.4501545" y="0.51580185" width="0.045" height="0.060000002" style="fill:white;stroke-width:0.001;stroke:black"></rect><text x="0.47265452" y="0.56080186" text-anchor="middle" font-size="0.05" fill="black">v</text>
<rect x="0.6131631" y="0.075" width="0.03" height="0.060000002" style="fill:white;stroke-width:0.001;stroke:black"></rect><text x="0.6281631" y="0.120000005" text-anchor="middle" font-size="0.05" fill="black">j</text>
<rect x="0.46111956" y="0.38588336" width="0.043333333" height="0.060000002" style="fill:white;stroke-width:0.001;stroke:black"></rect><text x="0.48278624" y="0.43088338" text-anchor="middle" font-size="0.05" fill="black">h</text>
<path d="M0,0 l0,1 l1,0 l0,-1 z" fill="none" stroke="black" stroke-width="0.01"/></svg>
